<?xml version="1.0" encoding="utf-8"?>
<!-- Generator: Adobe Illustrator 23.0.3, SVG Export Plug-In . SVG Version: 6.00 Build 0)  -->
<svg version="1.1" id="Layer_1" xmlns="http://www.w3.org/2000/svg" xmlns:xlink="http://www.w3.org/1999/xlink" x="0px" y="0px"
	 viewBox="0 0 363.6 43.3" style="enable-background:new 0 0 363.6 43.3;" xml:space="preserve">
<style type="text/css">
	.st0{fill-rule:evenodd;clip-rule:evenodd;}
</style>
<g>
	<path class="st0" d="M43.7,16.9c-1.2,0.6-2.3,1-3.3,1.3c-1,0.2-2,0.4-3.2,0.4c-2.7,0-5-0.9-6.9-2.7c-1.9-1.8-2.8-4-2.8-6.5
		c0-2.6,0.9-4.8,2.8-6.5c1.9-1.8,4.2-2.7,6.9-2.7c1.2,0,2.3,0.1,3.2,0.4c1,0.2,2.1,0.7,3.3,1.3l0,2.8c-1.1-0.7-2.1-1.3-3.1-1.6
		c-1-0.3-2.1-0.5-3.2-0.5c-2.1,0-3.9,0.6-5.2,1.9c-1.3,1.3-2,2.9-2,5c0,2,0.7,3.7,2,4.9c1.3,1.3,3.1,1.9,5.2,1.9
		c1.2,0,2.3-0.2,3.2-0.5s2-0.8,3.1-1.6L43.7,16.9L43.7,16.9z"/>
	<path class="st0" d="M69.9,18.5c-2.7,0-5-0.9-6.9-2.7c-1.9-1.8-2.8-4-2.8-6.5c0-2.6,0.9-4.8,2.8-6.5s4.2-2.7,6.9-2.7
		c2.7,0,5,0.9,6.9,2.7c1.9,1.8,2.8,4,2.8,6.5c0,2.6-0.9,4.8-2.8,6.5C74.9,17.6,72.6,18.5,69.9,18.5L69.9,18.5z M69.9,16.2
		c2.1,0,3.8-0.6,5.1-1.9c1.3-1.3,1.9-2.9,1.9-4.9c0-2-0.6-3.7-1.9-5c-1.3-1.3-3-1.9-5.1-1.9c-2.1,0-3.7,0.6-5,1.9
		c-1.3,1.3-1.9,2.9-1.9,5c0,2,0.7,3.7,2,4.9C66.1,15.5,67.8,16.2,69.9,16.2L69.9,16.2z"/>
	<polygon class="st0" points="101.6,18.2 101.6,2.6 95.3,2.6 95.3,1.5 95.3,0.4 110.4,0.3 110.4,1.5 110.4,2.6 104.2,2.6 
		104.2,18.2 102.9,18.2 101.6,18.2 	"/>
	<polygon class="st0" points="131.6,18.2 131.6,2.6 125.4,2.6 125.4,1.5 125.4,0.3 140.5,0.3 140.5,1.5 140.5,2.6 134.2,2.6 
		134.2,18.2 132.9,18.2 131.6,18.2 	"/>
	<polygon class="st0" points="174,18.2 174,0.3 183.6,0.3 183.6,1.5 183.6,2.6 176.6,2.6 176.6,7.6 183.6,7.6 183.6,8.7 183.6,9.9 
		176.6,9.9 176.6,18.2 175.3,18.2 174,18.2 	"/>
	<path class="st0" d="M209.4,18.5c-2.7,0-5-0.9-6.9-2.7c-1.9-1.8-2.8-4-2.8-6.5c0-2.6,0.9-4.8,2.8-6.5c1.9-1.8,4.2-2.7,6.9-2.7
		c2.7,0,5,0.9,6.9,2.7c1.9,1.8,2.8,4,2.8,6.5s-0.9,4.8-2.8,6.5C214.4,17.6,212.1,18.5,209.4,18.5L209.4,18.5z M209.4,16.1
		c2.1,0,3.8-0.6,5.1-1.9c1.3-1.3,1.9-2.9,1.9-4.9c0-2-0.6-3.7-1.9-5c-1.3-1.3-3-1.9-5.1-1.9c-2.1,0-3.7,0.6-5,1.9s-1.9,2.9-1.9,5
		c0,2,0.7,3.7,2,4.9S207.3,16.1,209.4,16.1L209.4,16.1z"/>
	<path class="st0" d="M236.4,18.2l0-17.9l1.3,0l3.3,0c1.9,0,3.3,0.4,4.3,1.3c1,0.8,1.5,2,1.5,3.6c0,1.5-0.5,2.7-1.5,3.6
		c-0.5,0.4-1,0.7-1.7,0.9l0.4,0.2c0.9,0.6,1.8,1.5,2.7,2.9l3.6,5.5l-1.6,0l-1.6,0l-3-4.6c-0.7-1.2-1.5-2-2.1-2.5
		c-0.7-0.5-1.4-0.7-2.3-0.7l-0.9,0l0,7.9l-1.3,0L236.4,18.2L236.4,18.2z M239,8l2,0c1,0,1.8-0.2,2.3-0.7c0.5-0.4,0.8-1.1,0.8-2
		c0-0.9-0.3-1.6-0.8-2c-0.5-0.4-1.3-0.7-2.3-0.7l-2,0L239,8L239,8z"/>
	<path class="st0" d="M266.5,18.2l0-17.9l1.3,0l3.3,0c1.9,0,3.3,0.4,4.3,1.3c1,0.8,1.5,2,1.5,3.6c0,1.5-0.5,2.7-1.5,3.6
		c-0.5,0.4-1,0.7-1.7,0.9l0.4,0.2c0.9,0.6,1.8,1.5,2.7,2.9l3.6,5.5l-1.6,0l-1.6,0l-3-4.6c-0.7-1.2-1.5-2-2.1-2.5s-1.4-0.7-2.3-0.7
		l-0.9,0l0,7.9l-1.3,0L266.5,18.2L266.5,18.2z M269.1,8l2,0c1,0,1.8-0.2,2.3-0.7s0.8-1.1,0.8-2c0-0.9-0.3-1.6-0.8-2
		c-0.5-0.4-1.3-0.7-2.3-0.7l-2,0L269.1,8L269.1,8z"/>
	<polygon class="st0" points="296.5,18.2 296.5,0.3 306.7,0.3 306.7,1.4 306.7,2.6 299.1,2.6 299.1,8 306.5,8 306.5,9.2 306.5,10.3 
		299.1,10.3 299.1,15.9 307,15.9 307,17.1 307,18.2 296.5,18.2 	"/>
	<polygon class="st0" points="354.8,18.2 354.7,2.6 348.5,2.6 348.5,1.4 348.5,0.3 363.6,0.3 363.6,1.4 363.6,2.6 357.3,2.6 
		357.3,18.2 356,18.2 354.8,18.2 	"/>
	<path class="st0" d="M6,18.7c0.4,0,0.9,0,1.3-0.1c0.5-0.1,1-0.2,1.5-0.3c1.4-0.5,2.6-1.5,3.2-3c0.9-2.1,0.5-4.8-1.6-6
		C9.9,9,9.3,8.8,8.8,8.6C8.2,8.5,7.6,8.3,6.9,8.2L5.1,7.7c-0.6-0.2-1.3-0.5-1.7-1C2.9,6.2,2.8,5.6,2.8,5c0-1.4,1-2.2,2.2-2.6
		c2.2-0.6,4.8,0.3,6.5,1.8l0.3,0l0-3C9.9,0.4,8.2,0,6.3,0C4.6,0,3.1,0.5,1.9,1.5C1.4,2,0.9,2.5,0.6,3.1C0.3,3.7,0.1,4.5,0.1,5.2
		c0,1.2,0.3,2.4,1.2,3.3c0.4,0.4,0.8,0.7,1.3,1c0.5,0.3,1.1,0.5,1.7,0.6c1.1,0.3,2.2,0.5,3.3,0.8c1.4,0.4,2.1,1.2,2.2,2.7
		c0,1.5-1,2.4-2.3,2.7c-0.5,0.1-1.1,0.2-1.6,0.2c-1,0-2-0.2-2.9-0.6c-1-0.4-1.9-1-2.7-1.7l-0.3,0l0,3.1C2,18.3,3.9,18.8,6,18.7
		L6,18.7z"/>
	<path class="st0" d="M327.8,18.7c0.4,0,0.9,0,1.3-0.1c0.5-0.1,1-0.2,1.5-0.3c1.4-0.5,2.6-1.5,3.2-3c0.9-2.1,0.5-4.8-1.6-6
		c-0.5-0.3-1-0.5-1.6-0.7c-0.6-0.2-1.2-0.3-1.8-0.5l-1.9-0.5c-0.6-0.2-1.3-0.5-1.7-1c-0.5-0.5-0.6-1.1-0.6-1.8c0-1.4,1-2.2,2.2-2.6
		c2.2-0.6,4.8,0.3,6.5,1.8l0.3,0l0-3C331.7,0.3,330,0,328.1,0c-1.7,0-3.2,0.4-4.4,1.5c-0.5,0.4-0.9,1-1.2,1.6
		c-0.3,0.7-0.5,1.4-0.5,2.1c0,1.2,0.3,2.4,1.2,3.3c0.4,0.4,0.8,0.7,1.3,1c0.5,0.3,1.1,0.5,1.7,0.6c1.1,0.3,2.2,0.5,3.3,0.8
		c1.4,0.4,2.1,1.2,2.2,2.7c0,1.5-1,2.4-2.3,2.7c-0.5,0.1-1.1,0.2-1.6,0.2c-1,0-2-0.2-2.9-0.6c-1-0.4-1.9-1-2.7-1.7l-0.3,0l0,3.1
		C323.8,18.2,325.7,18.7,327.8,18.7L327.8,18.7z"/>
	<path class="st0" d="M217.2,43.3c0.3,0,0.6,0,1-0.1c0.4,0,0.7-0.1,1.1-0.3c1.1-0.4,1.9-1.1,2.4-2.2c0.7-1.6,0.3-3.5-1.2-4.4
		c-0.4-0.2-0.8-0.4-1.2-0.5c-0.4-0.1-0.9-0.2-1.3-0.3l-1.4-0.3c-0.5-0.1-0.9-0.3-1.3-0.7c-0.3-0.4-0.4-0.8-0.4-1.3
		c0-1,0.7-1.6,1.6-1.9c1.6-0.4,3.5,0.2,4.8,1.3l0.2,0l0-2.2c-1.3-0.6-2.6-0.9-4-0.9c-1.3,0-2.3,0.3-3.2,1.1
		c-0.4,0.3-0.7,0.7-0.9,1.1c-0.2,0.5-0.4,1-0.4,1.6c0,0.9,0.2,1.7,0.9,2.4c0.3,0.3,0.6,0.5,1,0.7c0.4,0.2,0.8,0.3,1.2,0.5
		c0.8,0.2,1.6,0.4,2.4,0.6c1.1,0.3,1.6,0.9,1.6,2c0,1.1-0.8,1.8-1.7,2c-0.4,0.1-0.8,0.1-1.2,0.1c-0.7,0-1.4-0.2-2.1-0.4
		c-0.7-0.3-1.4-0.7-2-1.3l-0.2,0l0,2.3C214.3,42.9,215.7,43.3,217.2,43.3L217.2,43.3z M217.2,43.2c-1.5,0-2.9-0.3-4.4-1l0-2.2l0.1,0
		c0.6,0.5,1.2,1,2,1.3c1.1,0.4,2.2,0.6,3.3,0.3c1-0.2,1.8-1,1.8-2.1c0-1.1-0.6-1.7-1.6-2c-0.4-0.1-0.7-0.2-1.1-0.3l-1.3-0.3
		c-0.4-0.1-0.8-0.3-1.2-0.5c-0.4-0.2-0.7-0.4-1-0.7c-0.6-0.7-0.9-1.5-0.9-2.4c0-1.1,0.4-2,1.3-2.7c0.9-0.8,2-1.1,3.2-1.1
		c1.4,0,2.7,0.2,4,0.8l0,2.1l-0.1,0c-0.5-0.4-1-0.8-1.6-1c-0.7-0.3-1.4-0.4-2.1-0.4c-0.7,0-1.4,0.1-2,0.6c-0.5,0.3-0.8,0.9-0.8,1.5
		c0,0.5,0.1,1,0.4,1.3c0.3,0.4,0.8,0.6,1.3,0.7l1.4,0.3c0.5,0.1,0.9,0.2,1.3,0.3c0.4,0.1,0.8,0.3,1.1,0.5c1.5,0.9,1.8,2.8,1.2,4.4
		c-0.2,0.5-0.5,0.9-0.9,1.3c-0.4,0.4-0.9,0.7-1.4,0.9C219.2,42.9,218.5,43.2,217.2,43.2L217.2,43.2z"/>
	<path class="st0" d="M217.2,43.2c-1,0-1.8-0.1-2.5-0.3c-0.7-0.2-1.3-0.4-1.9-0.7l0-2.2l0.1,0c0.6,0.5,1.2,1,2,1.3
		c0.7,0.3,1.4,0.4,2.1,0.4c1,0,1.7-0.2,2.2-0.6c0.5-0.4,0.7-0.9,0.7-1.6c0-0.5-0.1-1-0.4-1.3c-0.3-0.3-0.7-0.6-1.2-0.7
		c-0.4-0.1-0.8-0.2-1.1-0.3c-0.3-0.1-0.8-0.2-1.3-0.3c-0.5-0.1-0.9-0.3-1.2-0.5c-0.4-0.2-0.7-0.4-1-0.7c-0.3-0.3-0.5-0.6-0.6-1
		c-0.2-0.4-0.2-0.8-0.2-1.4c0-1.1,0.4-2,1.3-2.7c0.8-0.7,1.9-1.1,3.2-1.1c0.7,0,1.4,0.1,2.1,0.2c0.7,0.1,1.3,0.4,1.8,0.6l0,2.1
		l-0.1,0c-0.4-0.4-1-0.7-1.6-1c-0.7-0.3-1.4-0.4-2.1-0.4c-0.8,0-1.5,0.2-2,0.6c-0.5,0.4-0.8,0.9-0.8,1.5c0,0.6,0.1,1,0.4,1.3
		c0.3,0.3,0.7,0.6,1.3,0.7c0.4,0.1,0.8,0.2,1.4,0.3c0.5,0.1,1,0.2,1.3,0.3c0.9,0.3,1.6,0.7,2,1.3c0.4,0.6,0.6,1.2,0.6,2.1
		c0,0.5-0.1,1-0.3,1.5c-0.2,0.5-0.5,0.9-0.9,1.3c-0.4,0.4-0.9,0.7-1.4,0.9C218.7,43.1,218,43.2,217.2,43.2L217.2,43.2z"/>
	<polygon class="st0" points="2.6,43.2 2.6,29.8 9.8,29.8 9.8,30.6 9.8,31.5 4.5,31.5 4.5,35.2 9.8,35.2 9.8,36.1 9.8,36.9 
		4.5,36.9 4.5,43.2 3.6,43.2 2.6,43.2 	"/>
	<polygon class="st0" points="27.6,43.1 27.6,29.8 28.6,29.8 29.5,29.8 29.5,43.1 28.6,43.1 27.6,43.1 	"/>
	<polygon class="st0" points="50.1,43.1 49.2,43.1 48.2,43.1 48.2,29.8 49.1,29.8 49.9,29.8 58.9,40 58.9,29.8 59.8,29.8 60.7,29.8 
		60.7,43.3 60,43.3 59.2,43.3 50.1,32.9 50.1,43.1 	"/>
	<polygon class="st0" points="79.4,43.1 79.4,29.8 87,29.8 87,30.6 87,31.5 81.3,31.5 81.3,35.6 86.8,35.6 86.8,36.4 86.8,37.2 
		81.3,37.2 81.3,41.4 87.2,41.4 87.2,42.3 87.2,43.1 79.4,43.1 	"/>
	<path class="st0" d="M116.1,43.1l5.8-13.5l0.7,0l0.7,0l6,13.5l-1.1,0l-1.1,0l-1.7-4l-5.6,0l-1.6,4l-1,0L116.1,43.1L116.1,43.1z
		 M122.5,32.6l-2,4.9l4.2,0L122.5,32.6L122.5,32.6L122.5,32.6z"/>
	<path class="st0" d="M146.5,43.1l0-13.4l1,0l2.5,0c1.4,0,2.4,0.3,3.2,0.9c0.7,0.6,1.1,1.5,1.1,2.7c0,1.2-0.4,2-1.1,2.7
		c-0.4,0.3-0.8,0.5-1.3,0.7l0.3,0.2c0.7,0.4,1.4,1.1,2,2.1l2.7,4.1l-1.2,0l-1.2,0l-2.2-3.5c-0.6-0.9-1.1-1.5-1.6-1.9
		c-0.5-0.4-1.1-0.5-1.7-0.5l-0.6,0l0,5.9l-1,0L146.5,43.1L146.5,43.1z M148.4,35.5l1.5,0c0.8,0,1.3-0.2,1.7-0.5
		c0.4-0.3,0.6-0.8,0.6-1.5c0-0.7-0.2-1.2-0.6-1.5c-0.4-0.3-1-0.5-1.7-0.5l-1.5,0L148.4,35.5L148.4,35.5z"/>
	<polygon class="st0" points="177,43.1 177,31.4 172.3,31.4 172.3,30.6 172.3,29.8 183.5,29.8 183.5,30.6 183.5,31.4 178.9,31.4 
		178.9,43.1 177.9,43.1 177,43.1 	"/>
	<polygon class="st0" points="241.9,43.1 241.9,31.4 237.3,31.4 237.3,30.6 237.3,29.7 248.5,29.7 248.5,30.6 248.5,31.4 
		243.9,31.4 243.9,43.1 242.9,43.1 241.9,43.1 	"/>
	<path class="st0" d="M276.7,38.1c0,1.5-0.5,2.8-1.6,3.7c-1.1,0.9-2.5,1.4-4.2,1.4c-1.7,0-3.1-0.5-4.2-1.4c-1.1-0.9-1.6-2.2-1.6-3.7
		l0-8.4l1,0l1,0l0,8c0,1.2,0.3,2.1,1,2.8c0.7,0.7,1.6,1,2.8,1c1.2,0,2.2-0.3,2.8-1c0.7-0.7,1-1.6,1-2.8l0-8l1,0l1,0L276.7,38.1
		L276.7,38.1z"/>
	<path class="st0" d="M294.5,43.1l0-13.4l1,0l4.3,0c2.1,0,3.8,0.6,5.1,1.9c1.3,1.2,2,2.8,2,4.8c0,2-0.7,3.6-2.1,4.8
		c-1.4,1.2-3.2,1.9-5.4,1.9l-3.9,0L294.5,43.1L294.5,43.1z M296.4,41.3l3,0c1.7,0,3-0.4,4-1.3s1.5-2.1,1.5-3.6
		c0-1.5-0.5-2.7-1.4-3.6c-0.9-0.9-2.1-1.3-3.7-1.3l-3.4,0L296.4,41.3L296.4,41.3z"/>
	<polygon class="st0" points="324.4,43.1 324.4,29.7 325.3,29.7 326.3,29.7 326.3,43.1 325.3,43.1 324.4,43.1 	"/>
	<path class="st0" d="M351,43.3c-2,0-3.7-0.7-5.1-2c-1.4-1.3-2.1-3-2.1-4.9c0-1.9,0.7-3.6,2.1-4.9c1.4-1.3,3.1-2,5.1-2
		c2,0,3.7,0.7,5.1,2c1.4,1.3,2.1,3,2.1,4.9c0,1.9-0.7,3.6-2.1,4.9C354.7,42.6,353,43.3,351,43.3L351,43.3z M351,41.5
		c1.5,0,2.8-0.5,3.8-1.4s1.5-2.2,1.5-3.7c0-1.5-0.5-2.7-1.5-3.7c-1-0.9-2.2-1.4-3.8-1.4c-1.5,0-2.8,0.5-3.8,1.4
		c-1,0.9-1.5,2.2-1.5,3.7c0,1.5,0.5,2.7,1.5,3.7C348.2,41,349.4,41.5,351,41.5L351,41.5z"/>
</g>
</svg>
